<mxfile host="app.diagrams.net" modified="2023-11-21T14:09:20.221Z" agent="Mozilla/5.0 (Windows NT 10.0; Win64; x64) AppleWebKit/537.36 (KHTML, like Gecko) Chrome/119.0.0.0 Safari/537.36" etag="FkRA9l8opvuD9H-DP82G" version="22.1.3" type="github">
  <diagram id="C5RBs43oDa-KdzZeNtuy" name="Page-1">
    <mxGraphModel dx="2062" dy="1824" grid="1" gridSize="10" guides="1" tooltips="1" connect="1" arrows="1" fold="1" page="1" pageScale="1" pageWidth="827" pageHeight="1169" math="0" shadow="0">
      <root>
        <mxCell id="WIyWlLk6GJQsqaUBKTNV-0" />
        <mxCell id="WIyWlLk6GJQsqaUBKTNV-1" parent="WIyWlLk6GJQsqaUBKTNV-0" />
        <mxCell id="L5MsbCS6EArVhDVRvrha-20" value="&lt;p style=&quot;margin:0px;margin-top:4px;text-align:center;&quot;&gt;&lt;i&gt;&amp;lt;&amp;lt;Interface&amp;gt;&amp;gt;&lt;/i&gt;&lt;br&gt;&lt;b&gt;Stand&lt;/b&gt;&lt;/p&gt;&lt;hr size=&quot;1&quot;&gt;&lt;p style=&quot;margin:0px;margin-left:4px;&quot;&gt;&lt;span style=&quot;background-color: initial;&quot;&gt;+ describeAbility();&lt;/span&gt;&lt;/p&gt;&lt;p style=&quot;margin:0px;margin-left:4px;&quot;&gt;&lt;br&gt;&lt;/p&gt;" style="verticalAlign=top;align=left;overflow=fill;fontSize=12;fontFamily=Helvetica;html=1;whiteSpace=wrap;" vertex="1" parent="WIyWlLk6GJQsqaUBKTNV-1">
          <mxGeometry x="-190" y="-130" width="190" height="60" as="geometry" />
        </mxCell>
        <mxCell id="L5MsbCS6EArVhDVRvrha-22" value="&lt;p style=&quot;margin:0px;margin-top:4px;text-align:center;&quot;&gt;&lt;i&gt;&amp;lt;&amp;lt;Interface&amp;gt;&amp;gt;&lt;/i&gt;&lt;br&gt;&lt;b&gt;PlayerObserver&lt;/b&gt;&lt;/p&gt;&lt;hr size=&quot;1&quot;&gt;&lt;p style=&quot;margin:0px;margin-left:4px;&quot;&gt;&lt;span style=&quot;background-color: initial;&quot;&gt;+ notifyNewStandAvailable(standName: String): void;&lt;/span&gt;&lt;br&gt;&lt;/p&gt;&lt;p style=&quot;margin:0px;margin-left:4px;&quot;&gt;&lt;br&gt;&lt;/p&gt;" style="verticalAlign=top;align=left;overflow=fill;fontSize=12;fontFamily=Helvetica;html=1;whiteSpace=wrap;" vertex="1" parent="WIyWlLk6GJQsqaUBKTNV-1">
          <mxGeometry x="414" y="257" width="296" height="70" as="geometry" />
        </mxCell>
        <mxCell id="L5MsbCS6EArVhDVRvrha-23" value="&lt;p style=&quot;margin:0px;margin-top:4px;text-align:center;&quot;&gt;&lt;i&gt;&amp;lt;&amp;lt;Interface&amp;gt;&amp;gt;&lt;/i&gt;&lt;br&gt;&lt;b&gt;StandFactory&lt;/b&gt;&lt;/p&gt;&lt;hr size=&quot;1&quot;&gt;&lt;p style=&quot;margin:0px;margin-left:4px;&quot;&gt;&lt;span style=&quot;background-color: initial;&quot;&gt;+ createStand(): Stand;&lt;/span&gt;&lt;br&gt;&lt;/p&gt;" style="verticalAlign=top;align=left;overflow=fill;fontSize=12;fontFamily=Helvetica;html=1;whiteSpace=wrap;" vertex="1" parent="WIyWlLk6GJQsqaUBKTNV-1">
          <mxGeometry x="-460" y="-100" width="190" height="60" as="geometry" />
        </mxCell>
        <mxCell id="L5MsbCS6EArVhDVRvrha-24" style="edgeStyle=orthogonalEdgeStyle;rounded=0;orthogonalLoop=1;jettySize=auto;html=1;exitX=0.5;exitY=1;exitDx=0;exitDy=0;" edge="1" parent="WIyWlLk6GJQsqaUBKTNV-1" source="L5MsbCS6EArVhDVRvrha-23" target="L5MsbCS6EArVhDVRvrha-23">
          <mxGeometry relative="1" as="geometry" />
        </mxCell>
        <mxCell id="L5MsbCS6EArVhDVRvrha-27" value="&lt;b&gt;GoldenWind&lt;/b&gt;" style="swimlane;fontStyle=0;childLayout=stackLayout;horizontal=1;startSize=26;fillColor=none;horizontalStack=0;resizeParent=1;resizeParentMax=0;resizeLast=0;collapsible=1;marginBottom=0;whiteSpace=wrap;html=1;" vertex="1" parent="WIyWlLk6GJQsqaUBKTNV-1">
          <mxGeometry x="-290" y="110" width="140" height="86" as="geometry" />
        </mxCell>
        <mxCell id="L5MsbCS6EArVhDVRvrha-28" value="+ GoldenWind();" style="text;strokeColor=none;fillColor=none;align=left;verticalAlign=top;spacingLeft=4;spacingRight=4;overflow=hidden;rotatable=0;points=[[0,0.5],[1,0.5]];portConstraint=eastwest;whiteSpace=wrap;html=1;" vertex="1" parent="L5MsbCS6EArVhDVRvrha-27">
          <mxGeometry y="26" width="140" height="26" as="geometry" />
        </mxCell>
        <mxCell id="L5MsbCS6EArVhDVRvrha-35" value="" style="line;strokeWidth=1;fillColor=none;align=left;verticalAlign=middle;spacingTop=-1;spacingLeft=3;spacingRight=3;rotatable=0;labelPosition=right;points=[];portConstraint=eastwest;strokeColor=inherit;fontFamily=Helvetica;fontSize=12;fontColor=default;html=1;" vertex="1" parent="L5MsbCS6EArVhDVRvrha-27">
          <mxGeometry y="52" width="140" height="8" as="geometry" />
        </mxCell>
        <mxCell id="L5MsbCS6EArVhDVRvrha-29" value="+ describeAbility(): void;" style="text;strokeColor=none;fillColor=none;align=left;verticalAlign=top;spacingLeft=4;spacingRight=4;overflow=hidden;rotatable=0;points=[[0,0.5],[1,0.5]];portConstraint=eastwest;whiteSpace=wrap;html=1;" vertex="1" parent="L5MsbCS6EArVhDVRvrha-27">
          <mxGeometry y="60" width="140" height="26" as="geometry" />
        </mxCell>
        <mxCell id="L5MsbCS6EArVhDVRvrha-34" value="&lt;p style=&quot;margin:0px;margin-top:4px;text-align:center;&quot;&gt;&lt;b&gt;GoldenWindFactory&lt;/b&gt;&lt;/p&gt;&lt;hr size=&quot;1&quot;&gt;+ GoldenWindFactory();&lt;div style=&quot;height:2px;&quot;&gt;&lt;/div&gt;&lt;hr size=&quot;1&quot;&gt;&lt;div style=&quot;height:2px;&quot;&gt;+ createStand(): Stand;&lt;/div&gt;" style="verticalAlign=top;align=left;overflow=fill;fontSize=12;fontFamily=Helvetica;html=1;whiteSpace=wrap;spacingLeft=4;spacingRight=4;fontColor=default;fillColor=none;gradientColor=none;" vertex="1" parent="WIyWlLk6GJQsqaUBKTNV-1">
          <mxGeometry x="190" y="136" width="140" height="80" as="geometry" />
        </mxCell>
        <mxCell id="L5MsbCS6EArVhDVRvrha-36" value="&lt;p style=&quot;margin:0px;margin-top:4px;text-align:center;&quot;&gt;&lt;b&gt;SIlverChariot&lt;/b&gt;&lt;/p&gt;&lt;hr size=&quot;1&quot;&gt;+ SilverChariot();&lt;div style=&quot;height:2px;&quot;&gt;&lt;br&gt;&lt;/div&gt;&lt;hr size=&quot;1&quot;&gt;&lt;div style=&quot;height:2px;&quot;&gt;+describeAbility(): void;&lt;/div&gt;" style="verticalAlign=top;align=left;overflow=fill;fontSize=12;fontFamily=Helvetica;html=1;whiteSpace=wrap;spacingLeft=4;spacingRight=4;fontColor=default;fillColor=none;gradientColor=none;" vertex="1" parent="WIyWlLk6GJQsqaUBKTNV-1">
          <mxGeometry x="-300" y="250" width="140" height="84" as="geometry" />
        </mxCell>
        <mxCell id="L5MsbCS6EArVhDVRvrha-37" value="&lt;p style=&quot;margin:0px;margin-top:4px;text-align:center;&quot;&gt;&lt;b&gt;SilverChariotFactory&lt;/b&gt;&lt;/p&gt;&lt;hr size=&quot;1&quot;&gt;+ SilverChariotFactory()&lt;div style=&quot;height:2px;&quot;&gt;&lt;br&gt;&lt;/div&gt;&lt;hr size=&quot;1&quot;&gt;&lt;div style=&quot;height:2px;&quot;&gt;+ createStand(): Stand;&lt;/div&gt;" style="verticalAlign=top;align=left;overflow=fill;fontSize=12;fontFamily=Helvetica;html=1;whiteSpace=wrap;spacingLeft=4;spacingRight=4;fontColor=default;fillColor=none;gradientColor=none;" vertex="1" parent="WIyWlLk6GJQsqaUBKTNV-1">
          <mxGeometry x="60" y="270" width="140" height="84" as="geometry" />
        </mxCell>
        <mxCell id="L5MsbCS6EArVhDVRvrha-38" value="&lt;p style=&quot;margin:0px;margin-top:4px;text-align:center;&quot;&gt;&lt;b&gt;TheWorld&lt;/b&gt;&lt;/p&gt;&lt;hr size=&quot;1&quot;&gt;+ TheWorld()&lt;div style=&quot;height:2px;&quot;&gt;&lt;br&gt;&lt;/div&gt;&lt;hr size=&quot;1&quot;&gt;&lt;div style=&quot;height:2px;&quot;&gt;+ describeAbility(): void;&lt;/div&gt;" style="verticalAlign=top;align=left;overflow=fill;fontSize=12;fontFamily=Helvetica;html=1;whiteSpace=wrap;spacingLeft=4;spacingRight=4;fontColor=default;fillColor=none;gradientColor=none;" vertex="1" parent="WIyWlLk6GJQsqaUBKTNV-1">
          <mxGeometry x="-310" y="390" width="140" height="80" as="geometry" />
        </mxCell>
        <mxCell id="L5MsbCS6EArVhDVRvrha-42" value="&lt;p style=&quot;margin:0px;margin-top:4px;text-align:center;&quot;&gt;&lt;b&gt;TheWorldFactory&lt;/b&gt;&lt;/p&gt;&lt;hr size=&quot;1&quot;&gt;+ TheWorldFactory();&lt;div style=&quot;height:2px;&quot;&gt;&lt;/div&gt;&lt;hr size=&quot;1&quot;&gt;&lt;div style=&quot;height:2px;&quot;&gt;+ createStand(): Stand;&lt;/div&gt;" style="verticalAlign=top;align=left;overflow=fill;fontSize=12;fontFamily=Helvetica;html=1;whiteSpace=wrap;spacingLeft=4;spacingRight=4;fontColor=default;fillColor=none;gradientColor=none;" vertex="1" parent="WIyWlLk6GJQsqaUBKTNV-1">
          <mxGeometry x="-30" y="400" width="140" height="90" as="geometry" />
        </mxCell>
        <mxCell id="L5MsbCS6EArVhDVRvrha-43" value="&lt;p style=&quot;margin:0px;margin-top:4px;text-align:center;&quot;&gt;&lt;b&gt;Player&lt;/b&gt;&lt;/p&gt;&lt;hr size=&quot;1&quot;&gt;+ Player(name:String);&lt;div style=&quot;height:2px;&quot;&gt;&lt;br&gt;&lt;/div&gt;&lt;br&gt;&lt;hr size=&quot;1&quot;&gt;&lt;div style=&quot;height:2px;&quot;&gt;+ notifyNewStandAvailable(standName: String): void;&lt;/div&gt;" style="verticalAlign=top;align=left;overflow=fill;fontSize=12;fontFamily=Helvetica;html=1;whiteSpace=wrap;spacingLeft=4;spacingRight=4;fontColor=default;fillColor=none;gradientColor=none;" vertex="1" parent="WIyWlLk6GJQsqaUBKTNV-1">
          <mxGeometry x="406.5" y="40" width="290" height="100" as="geometry" />
        </mxCell>
        <mxCell id="L5MsbCS6EArVhDVRvrha-46" value="&lt;p style=&quot;margin:0px;margin-top:4px;text-align:center;&quot;&gt;&lt;b&gt;StandShop&lt;/b&gt;&lt;/p&gt;&lt;hr size=&quot;1&quot;&gt;+ StandShop();&lt;br&gt;+ addPlayer(player: PlayerObserver): void;&lt;br&gt;&lt;div style=&quot;height:2px;&quot;&gt;&lt;br&gt;&lt;/div&gt;&lt;hr size=&quot;1&quot;&gt;&lt;div style=&quot;height:2px;&quot;&gt;+ announceNewStand()standName: String): void;&lt;/div&gt;" style="verticalAlign=top;align=left;overflow=fill;fontSize=12;fontFamily=Helvetica;html=1;whiteSpace=wrap;spacingLeft=4;spacingRight=4;fontColor=default;fillColor=none;gradientColor=none;" vertex="1" parent="WIyWlLk6GJQsqaUBKTNV-1">
          <mxGeometry x="416.5" y="-260" width="280" height="100" as="geometry" />
        </mxCell>
        <mxCell id="L5MsbCS6EArVhDVRvrha-82" style="edgeStyle=orthogonalEdgeStyle;rounded=0;orthogonalLoop=1;jettySize=auto;html=1;exitX=1;exitY=1;exitDx=0;exitDy=0;fontFamily=Helvetica;fontSize=12;fontColor=default;entryX=0.5;entryY=0;entryDx=0;entryDy=0;" edge="1" parent="WIyWlLk6GJQsqaUBKTNV-1" source="L5MsbCS6EArVhDVRvrha-47" target="L5MsbCS6EArVhDVRvrha-43">
          <mxGeometry relative="1" as="geometry">
            <mxPoint x="320" y="20" as="targetPoint" />
          </mxGeometry>
        </mxCell>
        <mxCell id="L5MsbCS6EArVhDVRvrha-47" value="&lt;p style=&quot;margin:0px;margin-top:4px;text-align:center;&quot;&gt;&lt;b&gt;JojoRPGWorld&lt;/b&gt;&lt;/p&gt;&lt;hr size=&quot;1&quot;&gt;&lt;div style=&quot;height:2px;&quot;&gt;+main(args: String[]): void;&lt;/div&gt;" style="verticalAlign=top;align=left;overflow=fill;fontSize=12;fontFamily=Helvetica;html=1;whiteSpace=wrap;spacingLeft=4;spacingRight=4;fontColor=default;fillColor=none;gradientColor=none;" vertex="1" parent="WIyWlLk6GJQsqaUBKTNV-1">
          <mxGeometry x="80" y="-240" width="150" height="60" as="geometry" />
        </mxCell>
        <mxCell id="L5MsbCS6EArVhDVRvrha-60" value="" style="endArrow=block;dashed=1;endFill=0;endSize=12;html=1;rounded=0;fontFamily=Helvetica;fontSize=12;fontColor=default;entryX=0.5;entryY=0;entryDx=0;entryDy=0;exitX=0.013;exitY=0.627;exitDx=0;exitDy=0;exitPerimeter=0;" edge="1" parent="WIyWlLk6GJQsqaUBKTNV-1" source="L5MsbCS6EArVhDVRvrha-20" target="L5MsbCS6EArVhDVRvrha-27">
          <mxGeometry width="160" relative="1" as="geometry">
            <mxPoint x="-240" y="-40" as="sourcePoint" />
            <mxPoint x="160" y="100" as="targetPoint" />
            <Array as="points">
              <mxPoint x="-220" y="-90" />
              <mxPoint x="-220" y="-22" />
            </Array>
          </mxGeometry>
        </mxCell>
        <mxCell id="L5MsbCS6EArVhDVRvrha-61" value="" style="endArrow=block;dashed=1;endFill=0;endSize=12;html=1;rounded=0;fontFamily=Helvetica;fontSize=12;fontColor=default;exitX=0.615;exitY=1.013;exitDx=0;exitDy=0;exitPerimeter=0;entryX=1;entryY=0.5;entryDx=0;entryDy=0;" edge="1" parent="WIyWlLk6GJQsqaUBKTNV-1" source="L5MsbCS6EArVhDVRvrha-20" target="L5MsbCS6EArVhDVRvrha-36">
          <mxGeometry width="160" relative="1" as="geometry">
            <mxPoint x="-55" y="50" as="sourcePoint" />
            <mxPoint x="-110" y="250" as="targetPoint" />
            <Array as="points">
              <mxPoint x="-70" y="290" />
            </Array>
          </mxGeometry>
        </mxCell>
        <mxCell id="L5MsbCS6EArVhDVRvrha-62" value="" style="endArrow=block;dashed=1;endFill=0;endSize=12;html=1;rounded=0;fontFamily=Helvetica;fontSize=12;fontColor=default;exitX=0.5;exitY=1;exitDx=0;exitDy=0;" edge="1" parent="WIyWlLk6GJQsqaUBKTNV-1" source="L5MsbCS6EArVhDVRvrha-20" target="L5MsbCS6EArVhDVRvrha-38">
          <mxGeometry width="160" relative="1" as="geometry">
            <mxPoint x="240" y="270" as="sourcePoint" />
            <mxPoint x="400" y="270" as="targetPoint" />
            <Array as="points">
              <mxPoint x="-90" y="430" />
            </Array>
          </mxGeometry>
        </mxCell>
        <mxCell id="L5MsbCS6EArVhDVRvrha-64" value="" style="endArrow=block;dashed=1;endFill=0;endSize=12;html=1;rounded=0;fontFamily=Helvetica;fontSize=12;fontColor=default;exitX=1;exitY=0.5;exitDx=0;exitDy=0;" edge="1" parent="WIyWlLk6GJQsqaUBKTNV-1" source="L5MsbCS6EArVhDVRvrha-47" target="L5MsbCS6EArVhDVRvrha-46">
          <mxGeometry width="160" relative="1" as="geometry">
            <mxPoint x="220" y="630" as="sourcePoint" />
            <mxPoint x="380" y="630" as="targetPoint" />
            <Array as="points" />
          </mxGeometry>
        </mxCell>
        <mxCell id="L5MsbCS6EArVhDVRvrha-65" value="1" style="endArrow=open;html=1;endSize=12;startArrow=diamondThin;startSize=14;startFill=0;edgeStyle=orthogonalEdgeStyle;align=left;verticalAlign=bottom;rounded=0;fontFamily=Helvetica;fontSize=12;fontColor=default;exitX=-0.013;exitY=0.64;exitDx=0;exitDy=0;exitPerimeter=0;" edge="1" parent="WIyWlLk6GJQsqaUBKTNV-1" source="L5MsbCS6EArVhDVRvrha-47" target="L5MsbCS6EArVhDVRvrha-42">
          <mxGeometry x="-1" y="3" relative="1" as="geometry">
            <mxPoint x="334" y="530" as="sourcePoint" />
            <mxPoint x="494" y="530" as="targetPoint" />
          </mxGeometry>
        </mxCell>
        <mxCell id="L5MsbCS6EArVhDVRvrha-66" value="1" style="endArrow=open;html=1;endSize=12;startArrow=diamondThin;startSize=14;startFill=0;edgeStyle=orthogonalEdgeStyle;align=left;verticalAlign=bottom;rounded=0;fontFamily=Helvetica;fontSize=12;fontColor=default;" edge="1" parent="WIyWlLk6GJQsqaUBKTNV-1" source="L5MsbCS6EArVhDVRvrha-47" target="L5MsbCS6EArVhDVRvrha-37">
          <mxGeometry x="-1" y="3" relative="1" as="geometry">
            <mxPoint x="290" y="550" as="sourcePoint" />
            <mxPoint x="450" y="550" as="targetPoint" />
          </mxGeometry>
        </mxCell>
        <mxCell id="L5MsbCS6EArVhDVRvrha-68" value="1" style="endArrow=open;html=1;endSize=12;startArrow=diamondThin;startSize=14;startFill=0;edgeStyle=orthogonalEdgeStyle;align=left;verticalAlign=bottom;rounded=0;fontFamily=Helvetica;fontSize=12;fontColor=default;entryX=0.5;entryY=0;entryDx=0;entryDy=0;" edge="1" parent="WIyWlLk6GJQsqaUBKTNV-1" source="L5MsbCS6EArVhDVRvrha-47" target="L5MsbCS6EArVhDVRvrha-34">
          <mxGeometry x="-1" y="3" relative="1" as="geometry">
            <mxPoint x="616.5" y="681" as="sourcePoint" />
            <mxPoint x="450" y="226" as="targetPoint" />
            <Array as="points">
              <mxPoint x="180" y="90" />
              <mxPoint x="230" y="90" />
            </Array>
          </mxGeometry>
        </mxCell>
        <mxCell id="L5MsbCS6EArVhDVRvrha-70" value="" style="endArrow=block;dashed=1;endFill=0;endSize=12;html=1;rounded=0;fontFamily=Helvetica;fontSize=12;fontColor=default;exitX=0;exitY=0.5;exitDx=0;exitDy=0;entryX=1;entryY=0.75;entryDx=0;entryDy=0;" edge="1" parent="WIyWlLk6GJQsqaUBKTNV-1" source="L5MsbCS6EArVhDVRvrha-37" target="L5MsbCS6EArVhDVRvrha-36">
          <mxGeometry width="160" relative="1" as="geometry">
            <mxPoint x="70" y="180" as="sourcePoint" />
            <mxPoint x="230" y="180" as="targetPoint" />
          </mxGeometry>
        </mxCell>
        <mxCell id="L5MsbCS6EArVhDVRvrha-71" value="" style="endArrow=block;dashed=1;endFill=0;endSize=12;html=1;rounded=0;fontFamily=Helvetica;fontSize=12;fontColor=default;exitX=0.013;exitY=0.601;exitDx=0;exitDy=0;exitPerimeter=0;entryX=1;entryY=0.75;entryDx=0;entryDy=0;" edge="1" parent="WIyWlLk6GJQsqaUBKTNV-1" source="L5MsbCS6EArVhDVRvrha-42" target="L5MsbCS6EArVhDVRvrha-38">
          <mxGeometry width="160" relative="1" as="geometry">
            <mxPoint x="70" y="180" as="sourcePoint" />
            <mxPoint x="230" y="180" as="targetPoint" />
          </mxGeometry>
        </mxCell>
        <mxCell id="L5MsbCS6EArVhDVRvrha-72" value="" style="endArrow=block;dashed=1;endFill=0;endSize=12;html=1;rounded=0;fontFamily=Helvetica;fontSize=12;fontColor=default;exitX=0.002;exitY=0.397;exitDx=0;exitDy=0;exitPerimeter=0;entryX=0.983;entryY=1.158;entryDx=0;entryDy=0;entryPerimeter=0;" edge="1" parent="WIyWlLk6GJQsqaUBKTNV-1" source="L5MsbCS6EArVhDVRvrha-34" target="L5MsbCS6EArVhDVRvrha-28">
          <mxGeometry width="160" relative="1" as="geometry">
            <mxPoint x="70" y="180" as="sourcePoint" />
            <mxPoint x="230" y="180" as="targetPoint" />
          </mxGeometry>
        </mxCell>
        <mxCell id="L5MsbCS6EArVhDVRvrha-73" value="1" style="endArrow=open;html=1;endSize=12;startArrow=diamondThin;startSize=14;startFill=0;edgeStyle=orthogonalEdgeStyle;align=left;verticalAlign=bottom;rounded=0;fontFamily=Helvetica;fontSize=12;fontColor=default;exitX=0;exitY=0.5;exitDx=0;exitDy=0;entryX=0.5;entryY=0;entryDx=0;entryDy=0;" edge="1" parent="WIyWlLk6GJQsqaUBKTNV-1" source="L5MsbCS6EArVhDVRvrha-47" target="L5MsbCS6EArVhDVRvrha-23">
          <mxGeometry x="-1" y="3" relative="1" as="geometry">
            <mxPoint x="-230" y="-170" as="sourcePoint" />
            <mxPoint x="-70" y="-170" as="targetPoint" />
          </mxGeometry>
        </mxCell>
        <mxCell id="L5MsbCS6EArVhDVRvrha-75" value="" style="endArrow=block;startArrow=block;endFill=1;startFill=1;html=1;rounded=0;fontFamily=Helvetica;fontSize=12;fontColor=default;exitX=0.401;exitY=1.11;exitDx=0;exitDy=0;exitPerimeter=0;entryX=0.002;entryY=0.941;entryDx=0;entryDy=0;entryPerimeter=0;" edge="1" parent="WIyWlLk6GJQsqaUBKTNV-1" source="L5MsbCS6EArVhDVRvrha-23" target="L5MsbCS6EArVhDVRvrha-28">
          <mxGeometry width="160" relative="1" as="geometry">
            <mxPoint x="-400" as="sourcePoint" />
            <mxPoint x="-240" as="targetPoint" />
            <Array as="points">
              <mxPoint x="-384" y="160" />
            </Array>
          </mxGeometry>
        </mxCell>
        <mxCell id="L5MsbCS6EArVhDVRvrha-76" value="Association" style="edgeLabel;html=1;align=center;verticalAlign=middle;resizable=0;points=[];fontSize=12;fontFamily=Helvetica;fontColor=default;" vertex="1" connectable="0" parent="L5MsbCS6EArVhDVRvrha-75">
          <mxGeometry x="-0.4766" y="1" relative="1" as="geometry">
            <mxPoint as="offset" />
          </mxGeometry>
        </mxCell>
        <mxCell id="L5MsbCS6EArVhDVRvrha-83" style="edgeStyle=orthogonalEdgeStyle;rounded=0;orthogonalLoop=1;jettySize=auto;html=1;entryX=0.465;entryY=0.033;entryDx=0;entryDy=0;entryPerimeter=0;fontFamily=Helvetica;fontSize=12;fontColor=default;" edge="1" parent="WIyWlLk6GJQsqaUBKTNV-1" source="L5MsbCS6EArVhDVRvrha-43" target="L5MsbCS6EArVhDVRvrha-22">
          <mxGeometry relative="1" as="geometry" />
        </mxCell>
      </root>
    </mxGraphModel>
  </diagram>
</mxfile>
